subject01_squat_2019-12-23_grf.mot
version=1
nRows=28
nColumns=19
inDegrees=yes
endheader
time	ground_force_vx	ground_force_vy	ground_force_vz	ground_force_px	ground_force_py	ground_force_pz	1_ground_force_vx	1_ground_force_vy	1_ground_force_vz	1_ground_force_px	1_ground_force_py	1_ground_force_pz	ground_torque_x	ground_torque_y	ground_torque_z	1_ground_torque_x	1_ground_torque_y	1_ground_torque_z
46.22	48.12705310398823	336.6692966238419	17.031144812916402	0.2586219107889902	0.0	0.2017728441456426	63.115479578253	348.9084209637566	19.81249201362707	0.7297015227282089	0.0	0.18550514336553417	-16.24601872101432	-2.8940999370095732	-2.3488202953249164	-22.496481363553645	7.080241941809955	4.724049339252559
46.23	48.28594741241151	329.72090281598713	16.96515117177332	0.25853241964079715	0.0	0.20225013396682628	63.025287268523265	340.26027221183	19.555443370300964	0.7296676662474428	0.0	0.18550126856363502	-15.758046349849941	-2.8032217725861055	-2.2092816517867275	-21.939077572225614	6.916921559719778	4.633900314931449
46.24	48.33626185362853	322.1921622024493	16.687301313819866	0.2584133560792165	0.0	0.20276235092276157	62.411373652597106	331.38415682104454	18.899348823809976	0.7296260817525199	0.0	0.18575966206635058	-15.2332614475621	-2.703103966916241	-2.0467001285536197	-21.28484082480174	6.7501872648382175	4.522844508235166
46.25	48.25058383634385	313.96370297655994	16.22976062500415	0.2582361621853024	0.0	0.20323072156823313	61.37129292890325	322.21285678624537	17.90174866292905	0.7295860838475374	0.0	0.18627572859337727	-14.690850189635091	-2.5847352423148844	-1.8885449580442144	-20.537301699953968	6.575555692350925	4.398026883857693
46.26	48.005007290768106	305.0149185659634	15.659916577758132	0.2579894097954316	0.0	0.20359302010445937	60.064397054704045	312.70221312864504	16.64735609059706	0.7295512362152433	0.0	0.18701944528049658	-14.149517701797194	-2.444692405148509	-1.7568054963156832	-19.707583071484738	6.391903383137773	4.264185778761573
46.27	47.5972107725926	295.4390068446356	15.06039312115392	0.2576826379100577	0.0	0.20382053771981906	58.65955999189134	302.8249752188203	15.241846882247282	0.7295228456658474	0.0	0.1879374710378548	-13.623664167545126	-2.2860288762865952	-1.6617935174694511	-18.81326142578571	6.199593020377565	4.123981526753207
46.28	47.0467153660892	285.3800809172218	14.498684709301896	0.25734149703619336	0.0	0.20392216063488602	57.280352815639844	292.53675348442266	13.791204951699132	0.7295021287116825	0.0	0.18896286211949556	-13.119639082318832	-2.116152464985928	-1.5995644214080207	-17.873812088793	5.9982148903982	3.9772356171130876
46.29	46.37188757903211	274.91601739892445	13.996559127853253	0.25699635728668374	0.0	0.20393398580858305	55.96537714976846	281.7267098353465	12.372908221564634	0.729489082394971	0.0	0.19002989601761178	-12.63309004422097	-1.942883237031474	-1.5539203477609838	-16.90430715897184	5.785094332754015	3.819535604732119
46.3	45.555190524611845	263.9529008141435	13.512145884048286	0.2566689114973956	0.0	0.2038984876911593	54.655937522591216	270.1855288650221	11.01099949057745	0.7294787503669548	0.0	0.19109091390882876	-12.148860391519653	-1.7707875946136526	-1.5022751816041715	-15.91018986161741	5.555331388809267	3.641592658020486
46.31	44.52010599551101	252.20457733201744	12.944505886795612	0.25636094435597007	0.0	0.20384078355337998	53.21537210467999	257.628040031592	9.66572179676549	0.729457784457243	0.0	0.19213248711997039	-11.644651884549324	-1.5995219977309894	-1.4232089275260682	-14.885753236114674	5.3035280903121444	3.430389846471228
46.32	43.14046632769035	239.29256849075713	12.1623122940466	0.256047410270179	0.0	0.20375008863895483	51.47540565939047	243.78690543707017	8.242185972597271	0.7294048263715853	0.0	0.19318761745163288	-11.098369250070572	-1.4246230642965019	-1.303131305229203	-13.817495469677757	5.026612421044109	3.1720813899819755
46.33	41.286179207478995	224.93555852552865	11.048661197721025	0.2556745368718048	0.0	0.20357250735413968	49.29630278344341	228.55353491506247	6.616379172230775	0.7292969906446714	0.0	0.19433844369236236	-10.497146551706193	-1.2398911944840447	-1.1399717440686732	-12.691597812419758	4.7264647453127555	2.855676159920203
46.34	38.888459411443804	209.14317985957504	9.547119655425343	0.2551640274204937	0.0	0.2032183498235608	46.62234761264663	212.10674313975133	4.672574006933122	0.7291217739381494	0.0	0.19570277527268684	-9.844633393800471	-1.0400239270117542	-0.942825237941551	-11.503221313487659	4.410843469871748	2.4761007603567156
46.35	35.99443965830284	192.320066804879	7.692738877186141	0.25442518998173536	0.0	0.20258410618358452	43.514878950023	194.9639676044784	2.343044218358952	0.7288898065355026	0.0	0.19740177338556514	-9.163263104381226	-0.8224823863863215	-0.7280088250523994	-10.264565485340784	4.09179308193173	2.035312715683958
46.36	32.78247715540391	175.22777902183384	5.616272510656379	0.2533756349492502	0.0	0.20158551801840374	40.15145435944143	177.92084242978788	-0.3607569984637634	0.7286409359679644	0.0	0.1995155525977312	-8.490193067691123	-0.5881719549310719	-0.5136076821604769	-9.00878497643878	3.7820996651946395	1.5409330551102418
46.37	29.525563023781856	158.81858676409914	3.5182742737033257	0.2519677891267095	0.0	0.20019378551305902	36.78900454036374	161.89578360674307	-3.3354275402136695	0.7284368431232917	0.0	0.20204310237358872	-7.868444223456233	-0.34100563394092703	-0.31509570213684324	-7.787922827868874	3.4915922713506853	1.0034560417412717
46.38	26.513697968130074	144.0110487134234	1.6194180550716653	0.250214999803954	0.0	0.1984641564334971	33.698952738861166	147.74023837827838	-6.397273396823377	0.7283388754031753	0.0	0.20488591139911694	-7.3367855875375545	-0.08681285360593378	-0.14336434628403702	-6.66476974170447	3.2253698330604013	0.43452939539890895
46.39	23.96558069309337	131.49899272334343	0.10184333237457974	0.24820957689148343	0.0	0.19654782986794642	31.092091668102665	136.09198620417177	-9.318346056407469	0.7283777175178873	0.0	0.2078678703501662	-6.921923302191109	0.1676135065238585	-0.004568532199533392	-5.700428521009128	2.985265552264117	-0.15167526093391157
46.4	21.96624409796134	121.66808341547328	-0.9392890807642853	0.24612637515629882	0.0	0.1946840414239231	29.057878066474224	127.3316404283121	-11.879212139328391	0.728527111561311	0.0	0.21078970891195298	-6.634770363481373	0.4144408050041302	0.09964830446752103	-4.940667343681244	2.774569021147051	-0.734828086259004
46.41	20.457510474481854	114.64847137024725	-1.5173289333465902	0.24420882491060864	0.0	0.19317544478832324	27.542305380739638	121.65844808791547	-13.923388954088516	0.7286932546787114	0.0	0.21350062014176585	-6.4703475772807035	0.6431180036876495	0.17222376270892706	-4.404480715054676	2.6047955921596264	-1.286289467143772
46.42	19.28636086219737	110.47719270427245	-1.741481716501684	0.2427383547075124	0.0	0.19235255580253918	26.377752408907188	119.24811519310681	-15.394908132756523	0.7287251558561281	0.0	0.21595995299091703	-6.40959771992142	0.8372827091880468	0.2204159426876015	-4.077699796227283	2.502361694178291	-1.7720785999350468
46.43	18.291834287402626	109.29918553933582	-1.77528796919506	0.24199157324897996	0.0	0.1925319161865301	25.358964114758916	120.41393529448072	-16.34489374824591	0.7284437098665558	0.0	0.2182625597094635	-6.421551801572839	0.971447711479012	0.25423502800253933	-3.9133789380560975	2.5123557406728025	-2.160997052230926
46.44	17.394601806263815	111.51483197325034	-1.7819333318012742	0.24219183428305519	0.0	0.19397054649020673	24.339025352430284	125.68064975529585	-16.905208252647782	0.7276827028799966	0.0	0.22061300750734741	-6.46538166554674	1.0094854090716738	0.28365014724805354	-3.839382141843726	2.6963768792428326	-2.433925459417813
46.45	16.652160413356665	117.79293549507557	-1.876187439665344	0.24346321278899444	0.0	0.19681880615009414	23.30831487575685	135.7065998081218	-17.24091539913219	0.7263331209781371	0.0	0.22325291812113884	-6.493117368039008	0.9070546738346401	0.3160905335980245	-3.7721902532293368	3.1223229603269207	-2.589594324952695
46.46	16.25735830843462	128.91264516564803	-2.0990212072488905	0.24579592772589207	0.0	0.20107642298350187	22.42477979885657	151.04888646108586	-17.500379775464992	0.7243805176404061	0.0	0.22636548852261326	-6.454487596332252	0.6191814167008252	0.3559936176601173	-3.634429586673507	3.8465646056730183	-2.6450090000128315
46.47	16.481965655674898	145.46565135596197	-2.4206891170720364	0.24903263551396565	0.0	0.20656203822470282	21.98283729626005	171.83873282350086	-17.778928699969047	0.7219240179590881	0.0	0.22999311873599446	-6.30486391092171	0.11224417525389953	0.4067460702835783	-3.372241520407466	4.892579814130365	-2.6318007560463497
46.48	17.588313091474394	167.5159219838067	-2.7660275636270035	0.2528833351597466	0.0	0.21291142008727468	22.33073909681515	197.489683286674	-18.10300559152427	0.7191679716122961	0.0	0.2340011168377778	-6.015546699979509	-0.6227517058875051	0.47348828774093005	-2.9679920447216266	6.233117481018037	-2.5903753719835922
46.49	19.740497141729563	194.3477702073375	-3.0480794886159486	0.2569708068632079	0.0	0.21961701446527268	23.762878139056298	226.57029408020816	-18.433362652879236	0.7163851172474089	0.0	0.23810233185476648	-5.583481046713514	-1.5603369743533622	0.5643604511722821	-2.444597210233662	7.783395226058155	-2.5626712192574455
